<svg aria-label="Pulsing Logo" class="logo " role="img" viewBox="0 0 223 180" xmlns="http://www.w3.org/2000/svg"><mask height="180" id="logo-mask" maskUnits="userSpaceOnUse" width="223" x="0" y="0" style="mask-type: alpha;"><path d="M116.731 179.07c58.24 0 105.453-40.086 105.453-89.535S174.971 0 116.731 0 11.279 40.086 11.279 89.535 58.49 179.07 116.73 179.07" fill="url(#gradient-a)"></path><path d="M103.197 179.07c56.994 0 103.197-40.086 103.197-89.535S160.191 0 103.197 0 0 40.086 0 89.535s46.203 89.535 103.197 89.535" fill="url(#gradient-b)"></path></mask><g mask="url(#logo-mask)"><path clip-rule="evenodd" d="M214.277 2.431H8.679V177.19h205.598zm-55.075 87.623c0 27.383-22.197 49.58-49.58 49.58s-49.58-22.197-49.58-49.58 22.198-49.58 49.58-49.58c27.383 0 49.58 22.198 49.58 49.58" fill="#3BCAFF" fill-rule="evenodd"></path></g><defs><radialGradient cx="0" cy="0" gradientTransform="matrix(106.2272 -3.53506 2.93548 88.21007 116.733 89.537)" gradientUnits="userSpaceOnUse" id="gradient-a" r="1"><stop offset=".17" stop-color="#1725ED"></stop><stop offset=".385" stop-color="#1725ED" stop-opacity=".78"></stop><stop offset=".455" stop-color="#72D7FF" stop-opacity=".73"></stop><stop offset=".58" stop-color="#72D7FF" stop-opacity=".29"></stop><stop offset=".78" stop-color="#72D7FF" stop-opacity="0"></stop></radialGradient><radialGradient cx="0" cy="0" gradientTransform="matrix(103.95491 -3.53498 2.99943 88.20582 103.197 89.535)" gradientUnits="userSpaceOnUse" id="gradient-b" r="1"><stop offset=".17" stop-color="#1725ED"></stop><stop offset=".385" stop-color="#1725ED" stop-opacity=".78"></stop><stop offset=".455" stop-color="#72D7FF" stop-opacity=".73"></stop><stop offset=".58" stop-color="#72D7FF" stop-opacity=".29"></stop><stop offset=".78" stop-color="#72D7FF" stop-opacity="0"></stop></radialGradient></defs></svg>